<?xml version="1.0" encoding="utf-8"?>
<!-- Generator: Adobe Illustrator 24.2.0, SVG Export Plug-In . SVG Version: 6.00 Build 0)  -->
<svg version="1.1" id="图层_1" xmlns="http://www.w3.org/2000/svg" xmlns:xlink="http://www.w3.org/1999/xlink" x="0px" y="0px"
	 viewBox="0 0 143 36" style="enable-background:new 0 0 143 36;" xml:space="preserve">
<style type="text/css">
	.st0{fill-rule:evenodd;clip-rule:evenodd;fill:#23ADE5;}
</style>
<desc>Created with Sketch.</desc>
<path id="bilibili游戏" class="st0" d="M74.9,32.1c-0.3,0-0.7,0-1,0c-0.6-0.1-1.2,0-1.8-0.1c-0.4,0-0.4,0-0.4-0.4
	c-0.1-1.2-0.2-2.3-0.3-3.4c-0.1-1-0.2-2-0.3-3c-0.1-0.9-0.2-1.8-0.3-2.7c-0.1-0.9-0.2-1.7-0.3-2.6c-0.1-1.1-0.3-2.1-0.4-3.3
	c-0.1-0.9-0.3-1.9-0.4-2.9c-0.2-1.5-0.4-3-0.6-4.4c-0.2-1.6-0.5-3.1-0.8-4.7c0-0.3,0-0.3,0.2-0.3C69.6,4.2,70.7,4,71.9,4
	c0.1,0,0.3,0,0.4,0c0.2,0,0.3,0.1,0.3,0.3c0,0.8,0.1,1.6,0.2,2.4c0.1,1.3,0.2,2.7,0.3,3.9c0.1,0.9,0.1,1.7,0.2,2.5
	c0.1,1.4,0.2,2.7,0.3,4.1c0,0.8,0.1,1.7,0.2,2.5c0.1,1.2,0.2,2.4,0.3,3.7c0.1,0.8,0.1,1.5,0.2,2.4c0.1,1.2,0.2,2.3,0.3,3.5
	C74.7,30.3,74.8,31.2,74.9,32.1z M30.7,4.1c0.2,0,0.4,0,0.7,0c0.3,0,0.4,0.1,0.4,0.4C31.9,5.9,32,7.3,32,8.7c0.1,1.5,0.2,3,0.3,4.6
	c0.1,1.4,0.2,2.8,0.3,4.2c0.1,1.5,0.3,3.1,0.4,4.6c0.1,1.2,0.2,2.4,0.3,3.5c0.1,1.1,0.2,2.2,0.3,3.3c0.1,0.9,0.2,1.9,0.3,2.8
	c0,0.3,0,0.3-0.3,0.3c-0.9,0-1.7-0.1-2.6-0.1c-0.2,0-0.3-0.1-0.3-0.3c-0.1-0.4,0-0.8-0.1-1.2c-0.1-1.1-0.2-2.1-0.3-3.2
	c-0.1-1-0.2-1.9-0.3-2.9c-0.1-0.9-0.2-1.8-0.3-2.7c-0.1-0.9-0.2-1.8-0.3-2.6c-0.1-0.8-0.2-1.6-0.3-2.4c-0.1-1.2-0.3-2.4-0.5-3.5
	c-0.1-1.1-0.3-2.1-0.5-3.2c-0.2-1.5-0.5-2.9-0.7-4.4c0-0.3-0.1-0.6-0.2-1c0-0.2,0-0.3,0.2-0.3c0.5-0.1,1-0.2,1.5-0.2
	C29.6,4.1,30.1,4,30.7,4.1z M66.9,18.2c1,0,1,0,1.2,0.9c0.2,1.1,0.3,2.1,0.5,3.2c0.1,1.1,0.3,2.3,0.4,3.4c0.1,0.9,0.2,1.8,0.3,2.7
	c0.1,0.9,0.2,1.9,0.3,2.9c0,0.6,0.1,1.1,0.2,1.6c0,0.2,0,0.3-0.2,0.3c-0.3,0-0.6,0.1-1,0.1c-0.6,0.1-1.2,0.1-1.8,0.2
	c-0.3,0-0.3,0-0.4-0.3c-0.6-2.7-1.1-5.4-1.6-8.1c-0.3-1.8-0.7-3.6-1-5.3c0-0.3-0.1-0.5-0.1-0.7c0-0.1,0-0.2,0.2-0.3
	C64.8,18.5,65.9,18.3,66.9,18.2z M26,18.2c1,0,1,0,1.2,0.9c0.3,1.4,0.4,2.9,0.6,4.3c0.2,1.4,0.3,2.8,0.5,4.2
	c0.1,0.9,0.2,1.9,0.3,2.9c0.1,0.7,0.1,1.4,0.2,2.1c0,0.1,0,0.2,0,0.3c0,0.3,0,0.3-0.3,0.4c-0.6,0.1-1.3,0.1-2,0.2
	c-0.3,0-0.5,0-0.7,0.1c-0.3,0-0.3,0-0.4-0.3c-0.2-1.1-0.4-2.1-0.6-3.3c-0.5-2.6-1-5.2-1.5-7.8c-0.2-1-0.4-2.1-0.6-3.1
	c0-0.2,0-0.3,0.2-0.3C23.9,18.5,25,18.3,26,18.2z M39.8,29.1v4.4c0,0,0,0.1,0,0.1c0,0.2,0,0.3-0.3,0.3c-0.3,0-0.6,0-0.9,0
	c-0.6,0-1.2,0-1.8,0c-0.3,0-0.3,0-0.4-0.3c-0.1-1.1-0.2-2.2-0.3-3.3c-0.1-1-0.2-2-0.3-3c-0.1-1-0.2-2.1-0.3-3.1
	c-0.1-0.7-0.1-1.4-0.2-2.1c-0.1-0.9-0.2-1.8-0.2-2.7c0-0.4,0-0.4,0.4-0.5c1-0.1,2-0.1,3-0.1c0.3,0,0.5,0,0.7,0.1
	c0.3,0.1,0.3,0.1,0.3,0.4c0,0.6,0.1,1.2,0.1,1.9c0,0.7,0,1.4,0,2.1C39.7,25.2,39.7,27.2,39.8,29.1z M80.6,29.3v4.1
	c0,0.1,0,0.1,0,0.2c0,0.2-0.1,0.3-0.3,0.3c-0.4,0-0.9,0-1.3,0c-0.5,0-1,0-1.5,0c-0.3,0-0.3,0-0.3-0.3c-0.1-1.4-0.3-2.9-0.4-4.3
	c-0.1-1.3-0.2-2.7-0.3-3.9c-0.1-1.4-0.3-2.7-0.4-4.1c0-0.7-0.1-1.4-0.2-2.1c0-0.3,0-0.3,0.3-0.4c0.6,0,1.2-0.1,1.8-0.1
	s1.2,0,1.8,0.1c0.5,0.1,0.5,0.1,0.6,0.6c0.1,1.5,0,3.1,0.1,4.7C80.6,25.8,80.6,27.5,80.6,29.3z M65.9,10.7c0.3,0,0.6,0,0.9,0
	c0.2,0,0.3,0.1,0.3,0.3c0.1,0.9,0.2,1.8,0.3,2.7c0.1,0.7,0.2,1.5,0.2,2.1v0c0,0.5,0,0.5-0.4,0.5c-0.4,0-0.8,0-1.2,0.1
	c-0.3,0-0.3,0-0.4-0.3c-0.2-1.3-0.3-2.7-0.5-4c0-0.4-0.1-0.7-0.2-1.1c0-0.2,0-0.3,0.3-0.3C65.5,10.8,65.8,10.8,65.9,10.7z
	 M25.1,10.7c0.3,0,0.6,0,0.8,0c0.2,0,0.3,0.1,0.3,0.3c0,0.4,0.1,0.8,0.1,1.2c0.1,1.3,0.3,2.6,0.4,3.8c0,0.3,0,0.3-0.3,0.3
	c-0.5,0-0.9,0.1-1.4,0.1c-0.3,0-0.3,0-0.3-0.3c-0.1-0.9-0.2-1.9-0.3-2.8c-0.1-0.8-0.2-1.5-0.3-2.3c0-0.2,0-0.3,0.2-0.3
	C24.6,10.7,24.9,10.8,25.1,10.7z M39.5,14.3c0,0.8,0,1.6,0,2.4c0,0.3,0,0.4-0.4,0.3c-0.4,0-0.9,0-1.3-0.1c-0.3,0-0.3,0-0.3-0.3
	c0-1,0-2-0.1-3c0-0.7,0-1.3-0.1-2c0-0.3,0-0.3,0.3-0.3c0.5,0,1,0,1.5,0.1c0.3,0,0.3,0,0.3,0.4C39.5,12.6,39.5,13.4,39.5,14.3
	L39.5,14.3z M80.4,14.3c0,0.8,0,1.6,0,2.4c0,0.3,0,0.3-0.3,0.3c-0.5,0-0.9,0-1.4,0c-0.2,0-0.3-0.1-0.3-0.3c0,0,0,0,0-0.1
	c0-1.5-0.1-3.1-0.1-4.7c0-0.1,0-0.2,0-0.3c0-0.3,0-0.3,0.3-0.3c0.4,0,0.9,0,1.3,0.1c0.6,0,0.4,0.1,0.4,0.6
	C80.4,12.8,80.4,13.5,80.4,14.3z M24,16.2c0,0.4,0,0.4-0.4,0.6c-0.3,0.1-0.6,0.1-0.9,0.2c-0.3,0-0.3,0-0.3-0.2
	c-0.3-1.7-0.6-3.3-0.9-5c0-0.3,0-0.4,0.3-0.4c0.4-0.1,0.9-0.1,1.3-0.2c0.3,0,0.3,0,0.3,0.3c0.1,0.6,0.2,1.2,0.3,1.8
	c0.1,0.9,0.2,1.9,0.3,2.8C24,16.1,24,16.1,24,16.2z M62.3,11.4c0.6-0.1,1.1-0.2,1.7-0.3c0.2,0,0.3,0.1,0.3,0.3
	c0.1,0.6,0.2,1.3,0.3,1.9c0.1,0.9,0.3,1.9,0.3,2.8c0,0.1,0,0.2,0,0.3c0,0.2-0.1,0.2-0.2,0.3c-0.4,0.1-0.8,0.2-1.2,0.3
	c-0.2,0-0.3,0-0.3-0.2c-0.1-0.6-0.3-1.3-0.3-2c-0.2-1.1-0.4-2.2-0.6-3.3C62.3,11.5,62.3,11.5,62.3,11.4z M36.8,15.2
	c0,0.6,0,1.1,0,1.6c0,0.2-0.1,0.3-0.3,0.3c-0.4,0-0.8,0-1.1,0.1c-0.2,0-0.2,0-0.3-0.2c-0.1-0.5-0.1-1-0.1-1.5
	c-0.1-1-0.1-1.9-0.2-2.9c0-0.3,0-0.5,0-0.7c0-0.1,0-0.2,0.2-0.2c0.5,0,1-0.1,1.5-0.1c0.3,0,0.3,0,0.3,0.3c0,0.2,0,0.4,0,0.6
	C36.7,13.3,36.7,14.3,36.8,15.2z M77.6,14.6c0,0.7,0,1.3,0,2c0,0.3,0,0.4-0.4,0.4s-0.7,0-1,0.1c-0.2,0-0.3,0-0.3-0.3
	c0-0.9-0.1-1.8-0.2-2.7c0-0.7-0.1-1.5-0.2-2.2c0-0.1,0-0.2,0-0.3c0-0.1,0-0.2,0.2-0.3c0.5,0,0.9-0.1,1.4-0.1c0.3,0,0.3,0,0.3,0.3
	C77.6,12.7,77.6,13.7,77.6,14.6z M11.1,32.4c0.8-0.4,4.9-3.5,5.2-4c-2-0.8-3.9-1.6-6.1-2.2C10.5,28.4,10.8,30.4,11.1,32.4z
	 M22.6,26.6c0.6,0.6,0.6,1.4,0.4,2.2c-0.2,0.8-0.6,1.5-1.2,2.1c-0.9,1-2,1.7-3.2,2.3c-2,1.1-4.2,1.8-6.4,2.2
	c-1.6,0.3-3.3,0.5-4.9,0.6c-0.5,0-1,0-1.5,0c-0.3,0-0.7,0-1.1,0c-0.3,0-0.3,0-0.4-0.4c-0.1-1.1-0.2-2.3-0.3-3.4
	c-0.1-1.3-0.3-2.6-0.4-3.9c-0.1-0.9-0.2-1.9-0.3-2.8c-0.1-1.1-0.3-2.2-0.4-3.3c-0.1-1-0.2-2.1-0.3-3.1c-0.1-1.1-0.3-2.3-0.4-3.4
	c-0.2-1.1-0.3-2.2-0.5-3.3C1.6,10.6,1.3,8.8,1,7.1C0.6,5.6,0.4,4.2,0,2.8c0-0.2,0-0.3,0.2-0.3c1.7-0.7,3.3-1.4,5-2.1
	c0.3-0.1,0.6-0.2,0.9-0.3c0.2,0,0.3,0,0.3,0.2c0,0.6,0,1.2,0,1.7c0,0.2,0,0.3,0,0.5c0,2.1,0,4.1,0,6.2c0,1.8,0.1,3.6,0.3,5.4
	c0.1,1.4,0.2,2.8,0.3,4.2c0.1,1.4,0.3,2.8,0.4,4.1c0,0.3,0,0.3,0.3,0.3c0.6-0.1,1.2-0.1,1.8-0.1c1.9,0,3.8,0.3,5.6,0.7
	c1.6,0.4,3.2,0.9,4.7,1.6c0.8,0.3,1.5,0.7,2.1,1.2C22.3,26.2,22.4,26.4,22.6,26.6z M57.1,28.7c0.1-0.1,0.1-0.2,0-0.3
	c-0.3-0.1-0.6-0.3-0.9-0.4c-1.5-0.6-3-1.2-4.6-1.7c-0.1,0-0.3-0.1-0.4,0c0.3,2.1,0.6,4.1,0.9,6.1c0.1,0,0.2,0,0.2-0.1
	c1.4-1,2.8-2,4.2-3.1C56.7,29.1,56.9,28.9,57.1,28.7z M63.2,26.3c0.7,0.6,1,1.4,0.8,2.4c-0.2,0.8-0.6,1.5-1.1,2.1
	c-0.9,0.9-1.9,1.7-3,2.3c-2.2,1.2-4.5,2-6.9,2.4c-1.3,0.3-2.7,0.4-4,0.6C48.2,36,47.4,36,46.5,36c-0.3,0-0.6,0-1,0
	c-0.2,0-0.3,0-0.3-0.3c-0.1-1-0.2-2-0.3-3c-0.1-1-0.2-2.1-0.3-3.1c-0.1-0.9-0.2-1.9-0.3-2.9c-0.1-0.9-0.2-1.8-0.3-2.7
	c-0.1-0.9-0.2-1.7-0.3-2.5c-0.1-1-0.3-2.1-0.4-3.1c-0.1-0.9-0.3-1.9-0.4-2.9c-0.1-1-0.3-2.1-0.4-3.1c-0.2-1.3-0.4-2.7-0.6-4
	c-0.3-1.9-0.6-3.7-1.1-5.6c0-0.1,0-0.2,0-0.3c0-0.2,0-0.3,0.2-0.3c1.8-0.7,3.5-1.5,5.3-2.1C46.5,0.1,46.8,0.1,47,0
	c0.2,0,0.3,0,0.3,0.3c-0.1,1.3,0,2.6-0.1,3.8c0,1,0,2.1,0,3.1c0,0.3,0,0.5,0,0.8c0,1.2,0,2.5,0.1,3.8c0.1,1.7,0.2,3.3,0.3,5
	c0.1,1.2,0.2,2.4,0.3,3.6c0,0.6,0.1,1.3,0.2,2c0,0.3,0,0.3,0.4,0.3c0.6-0.1,1.3-0.2,1.9-0.1c2.3,0,4.4,0.4,6.6,1
	c1.5,0.4,2.9,0.9,4.2,1.6C62.1,25.4,62.7,25.8,63.2,26.3z M135.8,11.4c1.2,1,3.1,2.7,4.3,3.9l-1.3,1.4c-1.2-1.2-3-3-4.2-4
	L135.8,11.4z M132.9,11c0,0,0.1,2.8,0.3,5.5l0.1,1.3l9.1-1.1l0.2,2l-9.1,1.1c0.3,2.7,0.6,4.8,1.1,6.6c1.9-1.8,3.5-3.8,4.8-6.1
	l1.6,1.1c-1.7,2.8-3.5,5.1-5.8,7.2c0.4,1.1,0.9,2.1,1.4,2.8c0.8,1.2,1.4,1.6,2.1,1.6s1-0.4,1.4-2.1c0.2-0.9,0.5-2.4,0.6-3.3l1.8,0.8
	c-0.2,1.3-0.5,2.6-0.8,3.6c-0.6,2.2-1.7,3.2-3.1,3.2c-1.4,0-2.5-0.6-3.9-2.9c-0.4-0.7-0.8-1.5-1.2-2.4c-1.8,1.4-3.8,2.7-6.2,3.9
	l-1-1.8c2.4-1.3,4.6-2.7,6.5-4.2c-0.6-2.1-1-4.6-1.4-7.9l-3.8,0.4l-0.3-2.1l3.9-0.4c0-0.6-0.1-1.2-0.1-1.8c-0.1-1.8-0.3-5.3-0.3-5.3
	L132.9,11L132.9,11z M119.7,17.9c1,1.5,2.3,3.3,3.5,5.3c0.9-2.3,1.6-4.7,2-7.3H118v-2.1h9.4v2.1c-0.6,3.4-1.5,6.5-2.7,9.4
	c1.2,1.9,2.3,3.7,3,5l-1.7,1.2c-0.6-1.1-1.5-2.5-2.4-4c-1.3,2.6-3,5-5,7.3l-1.4-1.8c2.1-2.3,3.8-4.8,5.2-7.6c-1.5-2.3-3-4.7-4.1-6.4
	L119.7,17.9z M107.3,25.4v-1.8l2.7-2.7h-5.8v-1.2l-0.3,0.5l-1.8-1c1.8-2.5,3.3-5.5,4.1-8.3l2,0.3c-0.3,1-0.6,2.1-1.1,3.1h6.4v2h-7.3
	c-0.5,0.9-0.9,1.8-1.5,2.7h7.7v2l-3.2,3.1v1.3h4.4v2h-4.4v5c0,2.3-0.6,2.8-2.9,2.8h-2.4l-0.4-2h1.8c1.6,0,1.9-0.3,1.9-1.6v-4.2h-4
	v-2L107.3,25.4L107.3,25.4z M98.6,15.2l-1.5-4l2-0.5c0.2,0.6,1.2,3.2,1.7,4.4h2.6v1.9h-5.2c0,0.9,0,2.7,0,3.8h4.5
	c0,0.6-0.3,10.4-0.4,11.2c-0.1,2.1-0.7,2.8-2.8,2.8h-2.1l-0.4-2h2c1.4,0,1.4-0.4,1.5-1.7c0-0.8,0.3-7.3,0.3-8.3H98
	c-0.3,6.2-1.2,9.1-3.9,12.8l-1.7-0.9c3-4,3.5-6.8,3.8-13.3c0-0.4,0-3,0.1-4.3h-1.7v-1.9H98.6z M90.4,11.6c1.1,0.8,3.1,2.5,4.2,3.3
	l-1.2,1.6c-1-0.9-3.2-2.7-4.1-3.4L90.4,11.6z M91.8,24.9l2,0.6c-0.6,1.5-2.8,8.3-3.3,10l-2.1-0.6C89,33.2,91.3,26.4,91.8,24.9z
	 M89.4,17.7c1.3,0.9,3.4,2.6,4.6,3.5l-1.3,1.7c-1.2-1-3.3-2.8-4.6-3.7L89.4,17.7z"/>
</svg>
